<svg width="31" height="30" viewBox="0 0 31 30" fill="none" xmlns="http://www.w3.org/2000/svg">
<path d="M28.0724 0.00146484C29.5073 0.00146484 30.6719 1.16602 30.6719 2.60091V7.12099C30.6717 7.86721 30.4671 8.59912 30.0804 9.23729C29.6936 9.87545 29.1394 10.3955 28.4779 10.7409L19.1466 15.613C20.6415 16.3627 21.8396 17.595 22.547 19.1103C23.2543 20.6256 23.4296 22.3353 23.0444 23.9627C22.6592 25.59 21.7361 27.0397 20.4244 28.0771C19.1128 29.1145 17.4894 29.6789 15.8171 29.6789C14.1448 29.6789 12.5215 29.1145 11.2098 28.0771C9.89819 27.0397 8.97505 25.59 8.58984 23.9627C8.20464 22.3353 8.37991 20.6256 9.08729 19.1103C9.79467 17.595 10.9928 16.3627 12.4876 15.613L3.15929 10.7424C2.49733 10.397 1.94269 9.87687 1.55563 9.23841C1.16857 8.59995 0.963905 7.86761 0.963867 7.12099V2.60091C0.963867 1.16602 2.12842 0.00146484 3.56332 0.00146484H28.0724ZM15.8179 17.0553C14.439 17.0553 13.1167 17.6031 12.1417 18.5781C11.1667 19.553 10.619 20.8754 10.619 22.2542C10.619 23.6331 11.1667 24.9554 12.1417 25.9304C13.1167 26.9054 14.439 27.4531 15.8179 27.4531C17.1967 27.4531 18.5191 26.9054 19.494 25.9304C20.469 24.9554 21.0168 23.6331 21.0168 22.2542C21.0168 20.8754 20.469 19.553 19.494 18.5781C18.5191 17.6031 17.1967 17.0553 15.8179 17.0553ZM21.0168 2.22808H10.619V12.1238L15.6456 14.75C15.6987 14.7778 15.7578 14.7924 15.8179 14.7924C15.8779 14.7924 15.937 14.7778 15.9902 14.75L21.0168 12.1223V2.22808ZM8.39087 2.22808L3.56332 2.22956C3.46483 2.22956 3.37037 2.26869 3.30073 2.33833C3.23109 2.40797 3.19197 2.50243 3.19197 2.60091V7.12099C3.19197 7.8117 3.57669 8.44596 4.18867 8.76681L8.39087 10.9593V2.22808ZM28.0724 2.22956L23.2449 2.22808V10.9593L27.4471 8.76681C27.7477 8.60969 27.9995 8.37322 28.1752 8.08307C28.3509 7.79293 28.4438 7.46019 28.4438 7.12099V2.60091C28.4438 2.50243 28.4046 2.40797 28.335 2.33833C28.2654 2.26869 28.1709 2.22956 28.0724 2.22956Z" fill="#6FFF6F"/>
</svg>
