<svg width="32" height="32" viewBox="0 0 32 32" fill="none" xmlns="http://www.w3.org/2000/svg">
<path d="M6.79872 15.8409V9.83722C6.81655 8.6571 7.06706 7.4921 7.53591 6.40896C8.00476 5.32583 8.68272 4.34585 9.53096 3.52518C10.3792 2.70452 11.381 2.05929 12.4791 1.62647C13.5771 1.19365 14.7497 0.981749 15.9298 1.00291C17.1099 0.981749 18.2825 1.19365 19.3805 1.62647C20.4785 2.05929 21.4804 2.70452 22.3286 3.52518C23.1769 4.34585 23.8548 5.32583 24.3237 6.40896C24.7925 7.4921 25.043 8.6571 25.0609 9.83722V15.8409M20.4953 27.8254C21.7062 27.8254 22.8674 27.3444 23.7236 26.4882C24.5798 25.632 25.0609 24.4707 25.0609 23.2599V18.1237M20.4953 27.8254C20.4953 28.5822 20.1947 29.308 19.6596 29.8431C19.1244 30.3783 18.3986 30.6789 17.6419 30.6789H14.2177C13.4609 30.6789 12.7351 30.3783 12.2 29.8431C11.6649 29.308 11.3643 28.5822 11.3643 27.8254C11.3643 27.0686 11.6649 26.3429 12.2 25.8077C12.7351 25.2726 13.4609 24.972 14.2177 24.972H17.6419C18.3986 24.972 19.1244 25.2726 19.6596 25.8077C20.1947 26.3429 20.4953 27.0686 20.4953 27.8254ZM3.37456 12.4167H5.65733C5.96005 12.4167 6.25036 12.537 6.46441 12.751C6.67846 12.9651 6.79872 13.2554 6.79872 13.5581V20.4064C6.79872 20.7091 6.67846 20.9995 6.46441 21.2135C6.25036 21.4276 5.96005 21.5478 5.65733 21.5478H3.37456C2.76914 21.5478 2.18851 21.3073 1.7604 20.8792C1.3323 20.4511 1.0918 19.8705 1.0918 19.265V14.6995C1.0918 14.0941 1.3323 13.5135 1.7604 13.0854C2.18851 12.6572 2.76914 12.4167 3.37456 12.4167ZM28.485 21.5478H26.2022C25.8995 21.5478 25.6092 21.4276 25.3952 21.2135C25.1811 20.9995 25.0609 20.7091 25.0609 20.4064V13.5581C25.0609 13.2554 25.1811 12.9651 25.3952 12.751C25.6092 12.537 25.8995 12.4167 26.2022 12.4167H28.485C29.0904 12.4167 29.6711 12.6572 30.0992 13.0854C30.5273 13.5135 30.7678 14.0941 30.7678 14.6995V19.265C30.7678 19.8705 30.5273 20.4511 30.0992 20.8792C29.6711 21.3073 29.0904 21.5478 28.485 21.5478Z" stroke="#6FFF6F" stroke-width="1.33548" stroke-linecap="round" stroke-linejoin="round"/>
</svg>
