<svg width="40" height="36" viewBox="0 0 40 36" fill="none" xmlns="http://www.w3.org/2000/svg">
<path d="M36.25 0.5C38.2812 0.5 40 2.21875 40 4.25V23C40 29.9531 34.375 35.5 27.5 35.5H26.875C25.7812 35.5 25 34.7188 25 33.625V29.875C25 28.8594 25.7812 28 26.875 28H27.5C30.2344 28 32.5 25.8125 32.5 23V18H26.25C24.1406 18 22.5 16.3594 22.5 14.25V4.25C22.5 2.21875 24.1406 0.5 26.25 0.5H36.25ZM13.75 0.5C15.7812 0.5 17.5 2.21875 17.5 4.25V23C17.5 29.9531 11.875 35.5 5 35.5H4.375C3.28125 35.5 2.5 34.7188 2.5 33.625V29.875C2.5 28.8594 3.28125 28 4.375 28H5C7.73438 28 10 25.8125 10 23V18H3.75C1.64062 18 0 16.3594 0 14.25V4.25C0 2.21875 1.64062 0.5 3.75 0.5H13.75Z" fill="white"/>
</svg>
